Coordinates
version=1
nRows=4
nColumns=63
inDegrees=yes

Units are S.I. units (second, meters, Newtons, ...)
If the header above contains a line with 'inDegrees', this indicates whether rotational values are in degrees (yes) or radians (no).

endheader
time	pelvis_tilt	pelvis_list	pelvis_rotation	pelvis_tx	pelvis_ty	pelvis_tz	hip_flexion_r	hip_adduction_r	hip_rotation_r	knee_angle_r	knee_angle_r_beta	ankle_angle_r	subtalar_angle_r	mtp_angle_r	hip_flexion_l	hip_adduction_l	hip_rotation_l	knee_angle_l	knee_angle_l_beta	ankle_angle_l	subtalar_angle_l	mtp_angle_l	L5_S1_Flex_Ext	L5_S1_Lat_Bending	L5_S1_axial_rotation	L4_L5_Flex_Ext	L4_L5_Lat_Bending	L4_L5_axial_rotation	L3_L4_Flex_Ext	L3_L4_Lat_Bending	L3_L4_axial_rotation	L2_L3_Flex_Ext	L2_L3_Lat_Bending	L2_L3_axial_rotation	L1_L2_Flex_Ext	L1_L2_Lat_Bending	L1_L2_axial_rotation	L1_T12_Flex_Ext	L1_T12_Lat_Bending	L1_T12_axial_rotation	Abs_r3	Abs_r2	Abs_r1	Abs_t1	Abs_t2	neck_flexion	neck_bending	neck_rotation	arm_flex_r	arm_add_r	arm_rot_r	elbow_flex_r	pro_sup_r	wrist_flex_r	wrist_dev_r	arm_flex_l	arm_add_l	arm_rot_l	elbow_flex_l	pro_sup_l	wrist_flex_l	wrist_dev_l
      3.35000000	    -39.40625999	     11.70459479	    -73.54597956	     -0.09470113	      0.97660444	     -0.97817768	     33.21226363	    -21.08815509	    -26.58455511	     36.92775601	      0.64451093	      5.99827469	     16.56736572	      0.00000000	     45.38649400	    -27.73958702	     39.27092600	     55.07349563	      0.96121383	     23.49088278	    -18.86774537	      0.00000000	     -0.01696975	     -1.08849872	     -0.92346664	     -0.03151453	     -1.44770330	     -0.98118330	     -0.02787961	     -2.64657580	     -0.98118330	     -0.01939473	     -2.64657580	     -0.80803331	     -0.01575811	     -2.21966660	     -0.75031664	     -0.00969652	     -1.68608452	     -0.69259998	     -0.12121325	    -12.31331526	     -5.13604439	      0.00000000	      0.00000000	     -8.98344539	     11.33802272	     -0.21861581	    -22.72371254	    -44.30329384	    -89.55174158	    111.41317792	     89.99559364	      0.00000000	      0.00000000	     -3.81531143	    -63.52449920	     -7.32967100	     40.81942550	     89.99559364	      0.00000000	      0.00000000
      3.36666667	    -39.42782299	     11.95489379	    -72.44421286	     -0.09299613	      0.97824309	     -0.96950439	     33.49398315	    -20.90181735	    -27.46062858	     37.82378617	      0.66014960	      5.52492458	     17.66085659	      0.00000000	     45.10553993	    -27.55091599	     39.41561221	     53.77757139	      0.93859568	     23.88570465	    -18.71395623	      0.00000000	     -0.01638731	     -1.09328331	     -1.00755961	     -0.03043286	     -1.45406681	     -1.07053208	     -0.02692270	     -2.65820905	     -1.07053208	     -0.01872905	     -2.65820905	     -0.88161466	     -0.01521725	     -2.22942333	     -0.81864218	     -0.00936371	     -1.69349585	     -0.75566971	     -0.11705288	    -12.36743948	     -5.60374427	      0.00000000	      0.00000000	     -9.59929744	     11.87421177	     -0.71769349	    -22.58932522	    -43.98888808	    -89.50443074	    113.03226232	     89.99559364	      0.00000000	      0.00000000	     -3.87827636	    -63.41322075	     -7.97700133	     41.06353300	     89.99559364	      0.00000000	      0.00000000
      3.38333333	    -39.63564309	     12.41454852	    -71.70421828	     -0.09212459	      0.97927961	     -0.96390894	     34.54939258	    -20.04009290	    -27.48659319	     38.66578344	      0.67484523	      5.34358561	     17.96247804	      0.00000000	     45.27341213	    -27.59268732	     39.50964921	     52.71869720	      0.92011484	     24.09625777	    -18.58793511	      0.00000000	     -0.01519836	     -1.05167326	     -1.08816899	     -0.02822487	     -1.39872544	     -1.15617955	     -0.02496938	     -2.55703838	     -1.15617955	     -0.01737020	     -2.55703838	     -0.95214787	     -0.01411319	     -2.14457212	     -0.88413730	     -0.00868434	     -1.62904189	     -0.81612674	     -0.10856034	    -11.89673831	     -6.05206947	      0.00000000	      0.00000000	     -9.60663625	     11.89825938	     -0.72183782	    -22.05630270	    -44.21667527	    -89.34530432	    114.45388444	     89.99559364	      0.00000000	      0.00000000	     -3.77737509	    -63.21865276	     -8.14227373	     41.54258177	     89.99559364	      0.00000000	      0.00000000
      3.40000000	    -40.01339264	     13.03506913	    -70.77341817	     -0.09216777	      0.97969604	     -0.96137187	     36.11783819	    -19.00869199	    -27.87284516	     39.67062369	      0.69238300	      5.47934798	     18.22544982	      0.00000000	     46.14754933	    -27.62319019	     39.58785617	     51.79915198	      0.90406575	     24.28242863	    -18.23759589	      0.00000000	     -0.01436102	     -0.98487383	     -1.23749286	     -0.02666986	     -1.30988219	     -1.31483617	     -0.02359373	     -2.39462223	     -1.31483617	     -0.01641321	     -2.39462223	     -1.08280625	     -0.01333565	     -2.00835471	     -1.00546295	     -0.00820589	     -1.52556956	     -0.92811965	     -0.10257936	    -11.14108973	     -6.88256405	      0.00000000	      0.00000000	     -9.53341656	     11.85031569	     -0.62965378	    -21.05791797	    -44.70242226	    -88.98008193	    115.76044715	     89.99559364	      0.00000000	      0.00000000	     -3.57169943	    -63.05005351	     -8.66466169	     42.45121104	     89.99559364	      0.00000000	      0.00000000
